<?xml version="1.0" standalone="no"?>
<!DOCTYPE svg PUBLIC "-//W3C//DTD SVG 20010904//EN"
 "http://www.w3.org/TR/2001/REC-SVG-20010904/DTD/svg10.dtd">
<svg version="1.0" xmlns="http://www.w3.org/2000/svg"
 width="700.000000pt" height="700.000000pt" viewBox="0 0 700.000000 700.000000"
 preserveAspectRatio="xMidYMid meet">
<metadata>
Created by potrace 1.14, written by Peter Selinger 2001-2017
</metadata>
<g transform="translate(0.000000,700.000000) scale(0.100000,-0.100000)"
fill="#000000" stroke="none">
<path d="M2218 5465 c-2 -2 -26 -6 -53 -10 -107 -12 -286 -71 -384 -126 -173
-96 -344 -248 -439 -390 -88 -132 -163 -302 -187 -421 -3 -16 -8 -40 -11 -55
-12 -58 -20 -165 -18 -240 2 -79 12 -192 19 -202 1 -3 6 -24 9 -46 9 -55 63
-208 98 -280 87 -174 250 -360 410 -468 372 -250 837 -282 1236 -85 161 79
299 192 427 349 64 78 154 244 189 350 48 145 61 229 61 399 0 151 -6 200 -35
313 -89 340 -324 629 -639 786 -88 45 -233 96 -298 106 -21 3 -50 8 -63 11
-28 7 -316 15 -322 9z"/>
<path d="M4440 4955 c0 -3 15 -43 34 -88 91 -221 181 -552 211 -777 3 -25 8
-61 10 -80 20 -142 26 -492 11 -674 -4 -55 -9 -102 -10 -105 -2 -3 -7 -35 -10
-70 -10 -91 -52 -298 -86 -423 -158 -573 -433 -1048 -845 -1464 -206 -208
-417 -376 -632 -504 -48 -29 -99 -60 -113 -69 -14 -8 -27 -16 -30 -16 -3 -1
-21 -9 -40 -20 -248 -135 -611 -267 -869 -316 l-64 -12 39 -20 c21 -11 97 -43
169 -72 244 -98 540 -176 794 -211 25 -3 57 -7 70 -10 167 -26 681 -25 843 1
13 2 46 7 73 10 71 10 87 13 115 18 14 3 43 8 65 12 325 59 741 212 1039 384
49 28 91 51 93 51 9 0 267 179 343 239 157 122 333 287 460 430 36 41 70 79
76 85 65 68 263 353 352 508 46 79 172 331 172 342 0 3 11 29 24 58 57 127
154 433 182 573 2 11 6 29 8 41 8 37 -86 279 -184 474 -275 549 -703 1007
-1235 1321 -226 133 -589 284 -805 334 -216 50 -260 59 -260 50z"/>
</g>
</svg>
